<?xml version="1.0" encoding="UTF-8"?>
<svg width="22px" height="17px" viewBox="0 0 22 17" version="1.1" xmlns="http://www.w3.org/2000/svg" xmlns:xlink="http://www.w3.org/1999/xlink">
    <!-- Generator: Sketch 51.3 (57544) - http://www.bohemiancoding.com/sketch -->
    <title>learning_center</title>
    <desc>Created with Sketch.</desc>
    <defs></defs>
    <g id="Symbols" stroke="none" stroke-width="1" fill="none" fill-rule="evenodd">
        <g id="Bottom-row-icons" transform="translate(-24.000000, -17.000000)" fill="#4A4A4A" fill-rule="nonzero">
            <g id="learning_center" transform="translate(24.000000, 17.000000)">
                <path d="M12,8 L19,8 L19,9.5 L12,9.5 L12,8 Z M12,5.5 L19,5.5 L19,7 L12,7 L12,5.5 Z M12,10.5 L19,10.5 L19,12 L12,12 L12,10.5 Z M20,0 L2,0 C0.9,0 0,0.9 0,2 L0,15 C0,16.1 0.9,17 2,17 L20,17 C21.1,17 22,16.1 22,15 L22,2 C22,0.9 21.1,0 20,0 Z M20,15 L11,15 L11,2 L20,2 L20,15 Z" id="Shape"></path>
            </g>
        </g>
    </g>
</svg>