<?xml version="1.0" encoding="UTF-8"?>
<svg width="34px" height="19px" viewBox="0 0 34 19" version="1.1" xmlns="http://www.w3.org/2000/svg" xmlns:xlink="http://www.w3.org/1999/xlink">
    <!-- Generator: Sketch 51.3 (57544) - http://www.bohemiancoding.com/sketch -->
    <title>icon-chat</title>
    <desc>Created with Sketch.</desc>
    <defs></defs>
    <g id="Symbols" stroke="none" stroke-width="1" fill="none" fill-rule="evenodd">
        <g id="Bottom-row-icons" transform="translate(-241.000000, -16.000000)" fill-rule="nonzero" stroke="#4A4A4A" stroke-width="1.5">
            <g id="icon-chat" transform="translate(241.000000, 16.000000)">
                <path d="M32.7637014,13.7701721 L30.5654945,10.4931071 L30.5654945,7 C30.5654945,3.54822032 27.7672742,0.750000005 24.3154945,0.750000003 L17,0.75 C14.5621373,0.75 12.3789482,2.15809866 11.3510766,4.32181925 L11.1476701,4.75 L9.68450546,4.75 C6.23272577,4.75000001 3.43450546,7.54822032 3.43450546,11 L3.43450546,14.4931071 L1.23629857,17.7701721 L2.50275964,18.0478845 C3.79619555,18.3315119 5.1462907,18.1970053 6.3583438,17.6637621 L6.69217276,17.5168939 L17,17.5168939 C19.4378627,17.5168939 21.6210518,16.1087953 22.6489234,13.9450747 L22.8523298,13.5168939 L27.3078272,13.5168939 L27.6416562,13.6637621 C28.8537093,14.1970053 30.2038045,14.3315119 31.4972404,14.0478845 L32.7637014,13.7701721 Z" id="outline"></path>
                <path d="M1.23629857,17.7701721 L2.50275964,18.0478845 C3.79619555,18.3315119 5.1462907,18.1970053 6.3583438,17.6637621 L6.69217276,17.5168939 L17,17.5168939 C20.4517797,17.5168939 23.25,14.7186736 23.25,11.2668939 L23.25,11 C23.25,7.54822031 20.4517797,4.75 17,4.75 L9.68450546,4.75 C6.23272577,4.75000001 3.43450546,7.54822032 3.43450546,11 L3.43450546,14.4931071 L1.23629857,17.7701721 Z" id="top-bubble"></path>
            </g>
        </g>
    </g>
</svg>