<?xml version="1.0" encoding="UTF-8"?>
<svg width="11px" height="24px" viewBox="0 0 11 24" version="1.1" xmlns="http://www.w3.org/2000/svg" xmlns:xlink="http://www.w3.org/1999/xlink">
    <!-- Generator: Sketch 51.3 (57544) - http://www.bohemiancoding.com/sketch -->
    <title>icon-health_profile</title>
    <desc>Created with Sketch.</desc>
    <defs></defs>
    <g id="Symbols" stroke="none" stroke-width="1" fill="none" fill-rule="evenodd">
        <g id="Bottom-row-icons" transform="translate(-103.000000, -13.000000)" fill="#4A4A4A" fill-rule="nonzero">
            <g id="icon-health_profile" transform="translate(103.000000, 13.000000)">
                <g id="Rounded" transform="translate(0.275862, 0.000000)">
                    <path d="M0.993103448,2.32258065 C0.993103448,1.03354839 2.09793103,0 3.47586207,0 C4.8537931,0 5.95862069,1.03354839 5.95862069,2.32258065 C5.95862069,3.6116129 4.8537931,4.64516129 3.47586207,4.64516129 C2.09793103,4.64516129 0.993103448,3.6116129 0.993103448,2.32258065 Z M9.93103448,12.6371922 C9.91862069,11.0606652 8.90068966,9.68414537 7.44827586,9.10765415 C7.44827586,7.09581744 5.68551724,5.48399505 3.52551724,5.57811607 C1.51448276,5.68400221 0,7.38994562 0,9.29589618 L0,16.1667303 C0,16.8138123 0.55862069,17.343243 1.24137931,17.343243 L2.48275862,17.343243 L2.48275862,21.4610374 C2.48275862,22.4375429 3.31448276,23.2258065 4.34482759,23.2258065 C5.37517241,23.2258065 6.20689655,22.4375429 6.20689655,21.4610374 L6.20689655,17.343243 L8.68965517,17.343243 C9.37241379,17.343243 9.93103448,16.8138123 9.93103448,16.1667303 L9.93103448,12.6371922 Z" id="Shape"></path>
                </g>
            </g>
        </g>
    </g>
</svg>