<?xml version="1.0" encoding="UTF-8"?>
<svg width="360px" height="640px" viewBox="0 0 360 640" version="1.1" xmlns="http://www.w3.org/2000/svg" xmlns:xlink="http://www.w3.org/1999/xlink">
    <!-- Generator: Sketch 51.3 (57544) - http://www.bohemiancoding.com/sketch -->
    <title>background_big</title>
    <desc>Created with Sketch.</desc>
    <defs></defs>
    <g id="background_big" stroke="none" stroke-width="1" fill="none" fill-rule="evenodd">
        <rect id="Rectangle-17" fill="#F5F3F0" fill-rule="nonzero" x="0" y="0" width="360" height="640"></rect>
        <g id="ovals" opacity="0.5" transform="translate(179.772384, 320.176190) rotate(15.000000) translate(-179.772384, -320.176190) translate(-242.727616, -95.823810)">
            <path d="M511.313602,556.280991 C510.878301,556.097604 510.45002,556.029682 510.014719,555.89384 C508.32968,555.010863 506.314655,554.474284 503.906455,554.515037 C497.868401,554.637295 491.977788,556.240238 486.431203,558.732951 C480.028057,561.042276 474.635935,564.091943 467.123472,569.267548 C463.051296,572.038738 461.703266,575.319337 462.082399,578.369005 C457.736405,583.435935 454.857797,589.501309 454.036341,596.755306 C450.813705,625.805255 487.477331,655.337445 518.685645,655.269524 C531.028551,655.228771 542.732546,651.662902 551.564956,645.611112 C556.311147,643.75686 559.266985,640.734361 560.846708,636.951144 C566.912846,629.031518 569.166585,619.081044 565.220787,608.003077 C557.46259,586.207125 534.377565,565.789976 511.313602,556.280991" id="Fill-1" fill="#DBD2BE"></path>
            <path d="M423.38065,618.044388 C420.479663,617.20027 417.827332,617.354414 415.541078,618.227891 C412.170407,617.728761 408.468195,617.912265 404.620933,619.005947 C398.943287,620.628121 395.075304,624.393618 392.174317,628.966532 C389.763735,630.963053 387.532738,633.583486 385.536582,636.996657 C373.083059,658.459257 376.937228,691.431213 394.79902,706.559264 C413.634715,722.48739 460.665242,726.142785 465.887019,691.533975 C470.010565,664.147874 450.263131,625.97175 423.38065,618.044388" id="Fill-3" fill="#DBD2BE"></path>
            <path d="M359.224601,633.068689 C354.463926,625.417099 348.311879,618.706575 339.874981,615.181197 C336.307885,611.380738 332.00418,608.311416 326.629665,606.559585 C299.443346,597.67737 277.004062,625.960021 277.522417,651.224022 C277.952105,672.318377 288.032732,695.374493 303.26962,709.258835 C320.184338,724.656122 348.393724,720.066615 358.91768,696.988783 C366.808942,679.658692 368.370826,655.7339 360.486384,638.353136 C360.547768,636.507199 360.213566,634.668501 359.224601,633.068689" id="Fill-5" fill="#DBD2BE"></path>
            <path d="M377.840194,367.81154 C377.940413,359.67083 375.477901,351.73604 370.645938,345.112275 C367.804028,340.115279 364.274905,335.379115 359.972668,331.130296 C356.386278,327.581605 349.335191,326.668693 344.274157,329.414295 C326.728762,338.879758 311.982327,355.07881 315.948116,373.29588 C317.759207,381.635647 322.448001,389.556709 329.341602,395.281289 C333.686789,398.884892 337.373398,400.470477 341.489515,400.738173 C348.239946,403.792656 356.371961,404.678112 363.916982,400.779357 C372.77916,396.166746 377.95473,388.61634 378.269702,379.905917 C378.284019,379.075373 378.069265,378.430156 377.969047,377.688844 C378.248227,374.339209 378.133691,371.058215 377.840194,367.81154" id="Fill-7" fill="#DBD2BE"></path>
            <path d="M419.894748,341.973641 C401.241834,348.128786 390.240437,366.505871 390.892427,383.314719 C391.506947,398.916099 401.631529,420.113065 423.566876,415.268464 C437.288646,412.235067 445.472247,400.359171 449.301752,388.593714 C453.453505,380.053081 454.847415,370.673111 453.101281,361.587645 C450.335943,347.267361 437.461011,336.179264 419.894748,341.973641" id="Fill-9" fill="#DBD2BE"></path>
            <path d="M431.201815,416.844935 C416.071135,414.12017 396.03837,417.904566 383.220795,426.406842 C377.71037,430.065092 377.293021,434.631596 379.570757,438.220465 C376.705902,445.253135 380.065918,451.364934 386.665695,455.78637 C393.230104,462.610897 406.01231,465.663644 416.177241,466.269147 C430.883497,467.145865 447.612837,460.945763 452.444186,448.034666 C457.586778,434.265771 448.051408,419.885067 431.201815,416.844935" id="Fill-11" fill="#DBD2BE"></path>
            <path d="M355.866416,446.911617 C355.544541,446.731529 355.215959,446.62481 354.887378,446.484741 C347.222714,440.121618 337.056808,438.454133 327.527947,447.131725 C319.051888,454.882196 315.122323,466.594611 315.303378,476.846309 C315.571608,491.867014 327.058545,502.638968 343.387029,504.026315 C359.608221,505.406993 378.223363,493.40777 378.270303,477.333214 C378.303832,463.052872 367.896519,453.961744 355.866416,446.911617" id="Fill-13" fill="#DBD2BE"></path>
            <path d="M313.014795,414.857643 C312.559699,409.265518 310.407744,403.898441 306.27937,399.64979 C296.11772,389.161145 278.934585,387.606262 265.749795,396.983301 C252.428477,406.455816 249.216797,426.376057 255.243572,439.217486 C261.523901,452.604489 277.120701,457.003173 291.924333,451.342851 C306.064825,445.948496 319.145592,432.397821 314.250057,417.537771 C313.937991,416.589838 313.489396,415.696462 313.014795,414.857643" id="Fill-15" fill="#DBD2BE"></path>
            <path d="M245.895972,360.697871 C261.147422,372.498072 280.071461,376.373996 295.279189,358.891106 C296.3285,357.691594 296.926025,356.342143 297.304943,354.940213 C297.815025,354.460408 298.332394,353.9881 298.806041,353.463314 C332.843079,315.843614 264.732569,270.029747 239.082735,311.832745 C228.611482,328.903302 230.688244,348.935155 245.895972,360.697871 Z" id="Fill-17" fill="#D7D1C1"></path>
            <path d="M291.635252,265.306477 C285.807918,281.81644 297.541334,300.502773 311.886551,309.119426 C327.760787,318.649773 354.311906,318.427695 361.681384,298.148739 C365.146286,293.802343 366.714679,288.307482 364.936292,282.013138 C360.893907,267.876244 354.87595,252.463236 339.559511,246.549598 C321.68377,239.646124 298.145067,246.829532 291.635252,265.306477 Z" id="Fill-19" fill="#DBD2BE"></path>
            <path d="M400.199669,241.763769 C380.498366,246.863532 373.162636,265.306783 374.312314,282.16804 C375.02433,292.79477 384.278132,301.922771 392.208298,309.145209 C401.386127,317.475711 415.001903,313.827375 425.365177,307.73036 C439.690429,300.154142 446.693014,280.963282 445.086077,267.419541 C443.093737,250.705136 424.203319,235.525732 404.273387,240.67222" id="Fill-21" fill="#DBD2BE"></path>
            <path d="M449.119171,301.34667 C447.131992,320.935274 470.373923,335.50647 490.675366,323.253571 C499.597528,317.868709 504.123051,314.975312 509.789195,303.163357 C514.354334,296.101572 513.378034,290.33399 513.075929,284.160774 C511.988351,262.561198 485.7388,257.149612 466.766618,267.979465 C451.923201,276.464297 450.663262,286.154144 449.119171,301.34667 Z" id="Fill-23" fill="#DBD2BE"></path>
            <path d="M501.151488,339.695438 C485.096267,348.348986 465.08736,368.796752 476.226995,385.061413 C489.990634,405.1617 530.652072,394.717302 550.10223,376.120527 C560.421422,368.228758 565.337008,357.78436 556.786011,346.224022 C545.165426,330.493943 520.212642,329.424779 501.151488,339.695438" id="Fill-25" fill="#DBD2BE"></path>
            <path d="M516.700376,416.017764 C515.669307,415.923385 514.728805,415.990799 513.809204,416.085178 C509.629196,415.687438 505.295921,416.462693 501.408513,418.309822 C496.956805,420.453571 493.222664,423.54785 490.289692,427.140988 C487.203453,429.50046 484.563081,432.372274 482.619378,435.871033 C478.43937,443.468532 477.338634,453.068211 482.403411,459.957868 C493.278398,474.741644 514.798472,481.112217 535.259611,478.294334 C554.654848,475.638243 574.865186,457.780413 564.268866,440.455149 C555.358483,425.880356 535.322311,417.703101 516.700376,416.017764" id="Fill-27" fill="#DBD2BE"></path>
            <path d="M481.275159,486.771172 C468.255938,478.048174 452.662211,474.90276 440.405807,486.393152 C407.039926,517.726047 451.466644,558.794748 489.343409,554.151517 C510.056806,551.633759 520.604209,536.084997 515.56522,519.188201 C510.944314,503.739294 497.374985,492.676849 481.275159,486.771172" id="Fill-29" fill="#DBD2BE"></path>
            <path d="M413.615198,521.078521 C412.453193,520.843515 411.335038,520.762941 410.26804,520.789799 C399.232649,514.283489 383.973116,515.230228 374.910941,526.295655 C362.275054,541.691907 362.633156,562.97674 375.817159,576.184079 C385.990181,586.363197 404.553023,597.757633 422.165798,589.404847 C452.560625,575.002334 444.360818,526.993959 413.615198,521.078521" id="Fill-31" fill="#DBD2BE"></path>
            <path d="M259.462842,466.447411 C236.4232,464.407686 221.751061,495.099283 216.825967,514.222622 C210.792082,537.550592 215.852552,564.391012 242.328156,566.960918 C264.703813,569.133188 282.212393,546.78458 286.454163,524.583245 C288.832906,519.369797 290.289806,513.839714 290.089965,508.06663 C289.883679,502.404001 288.123796,496.203827 285.132639,490.894652 C282.231733,478.037759 274.302589,467.772864 259.462842,466.447411" id="Fill-33" fill="#DBD2BE"></path>
            <path d="M176.182305,425.398733 C161.118012,434.182238 145.520833,450.995652 153.930876,466.124559 C163.3657,483.077293 186.170511,481.139476 204.254494,472.267313 C205.463737,471.665703 206.884768,470.019192 208.374117,470.019192 L208.415109,470.019192 C230.400094,457.353719 251.715556,441.730859 231.821125,424.486819 C216.668018,411.352724 194.327775,414.810398 176.182305,425.398733" id="Fill-35" fill="#DBD2BE"></path>
            <path d="M151.899899,341.457967 C121.603359,347.013939 101.372211,380.71687 122.485156,402.030055 C141.490392,421.211216 179.328805,419.763981 203.201847,402.81368 C220.034851,395.89519 233.304822,383.717235 224.142735,366.773994 C213.367605,346.837447 176.095549,337.017426 151.899899,341.457967" id="Fill-37" fill="#DBD2BE"></path>
            <path d="M164.50954,244.976328 C131.454075,248.193869 114.600502,278.699049 134.171722,303.029442 C145.936639,317.649369 181.127398,340.59875 203.319207,330.100167 C210.203451,329.384355 217.184754,327.95996 222.800301,324.366437 C231.459335,318.835159 236.450932,311.561348 237.775092,302.523312 C239.86879,295.75563 239.785596,288.091376 236.561857,280.029447 C226.342948,254.549416 192.642735,242.235996 164.50954,244.976328" id="Fill-39" fill="#DBD2BE"></path>
            <path d="M254.053783,179.488619 C224.610168,168.689533 193.486271,190.428045 204.05307,219.93432 C210.900749,239.00639 231.675792,255.306765 253.41401,261.993919 C255.263024,263.404326 257.73775,264.309512 260.86631,264.379682 C261.60451,264.40775 262.272404,264.295478 262.989512,264.281444 C263.629285,264.393716 264.269058,264.597207 264.908831,264.695445 C268.578737,265.200665 271.798693,264.309512 274.470273,262.744732 C284.938645,259.769546 292.988535,252.921002 298.500424,243.420052 C299.456568,241.981577 300.265073,240.40978 300.904845,238.68361 C301.066546,238.33978 301.27746,238.024017 301.4251,237.666153 C302.240635,235.771576 302.528884,234.045406 302.416397,232.487644 C302.521854,231.652626 302.634341,230.824626 302.676524,229.947508 C303.717034,207.696759 273.626616,186.652925 254.053783,179.488619" id="Fill-41" fill="#DBD2BE"></path>
            <path d="M351.40616,140.560865 C291.95172,125.149257 287.07428,221.355052 335.989304,226.938045 C338.942413,227.284771 341.629076,226.824829 344.012286,225.890792 C366.978441,229.563255 391.432253,209.29041 390.854954,186.802765 C390.299858,165.312841 375.016226,146.681637 351.40616,140.560865" id="Fill-43" fill="#DBD2BE"></path>
            <path d="M418.694729,127.412607 C404.055004,131.753846 391.669826,147.570475 386.760252,160.201553 C380.293261,176.810866 374.26383,219.04534 398.351889,224.61635 C401.03658,225.25346 403.498783,225.08307 405.716249,224.460776 C419.851668,229.779905 437.650726,226.105409 450.844278,210.829583 C470.096926,188.515912 477.483535,160.34231 456.569641,139.76958 C446.861738,130.220337 434.29857,122.782446 418.694729,127.412607" id="Fill-45" fill="#DBD2BE"></path>
            <path d="M499.124698,158.116655 C489.867162,163.476376 483.09125,173.001062 478.221513,181.257569 C467.115347,200.053304 456.296906,226.985404 483.573189,236.40997 C483.673892,236.436669 483.76021,236.450018 483.860913,236.476716 C495.513755,242.604019 513.057757,239.800678 527.479948,228.513892 C550.533874,210.512437 565.718534,179.20846 544.340604,158.583878 C533.450231,148.091373 512.561432,150.347395 499.124698,158.116655" id="Fill-47" fill="#DBD2BE"></path>
            <path d="M637.547463,264.878734 C621.641417,264.188298 604.737872,272.157074 593.630599,284.210927 C577.589756,301.637231 549.706996,337.403227 582.314391,350.449581 C598.638308,357.001526 621.93797,350.255396 638.14057,337.863517 C654.194893,327.557329 666.805152,311.979379 667.903748,293.97052 C668.881026,277.96824 652.772784,265.540401 637.547463,264.878734" id="Fill-49" fill="#DBD2BE"></path>
            <path d="M692.660625,365.863213 C679.385732,344.279023 631.716155,354.291053 611.754387,363.923785 C586.299073,376.190132 563.322209,407.349802 595.718598,422.120946 C620.609023,433.471253 655.222602,428.318528 682.316094,418.335124 C684.046067,417.805539 685.719551,417.147135 687.322424,416.395696 C687.93674,416.152373 688.56518,415.916206 689.172435,415.665727 C691.241342,414.799783 692.801848,413.669046 693.988115,412.395178 C699.319255,408.230059 703.245235,402.526279 704.869291,395.648824 C707.623125,383.919219 703.824246,371.438175 692.660625,365.863213" id="Fill-51" fill="#DBD2BE"></path>
            <path d="M614.644276,432.591942 C601.740266,436.891887 588.394021,443.835765 582.664772,456.984356 C577.932202,467.82306 578.763867,482.400228 587.153124,490.353349 C603.000965,505.371173 630.320504,507.162224 652.62365,500.303634 C664.861008,499.152244 678.194052,496.586492 686.827528,486.81389 C695.870236,476.565096 694.167303,463.906912 688.13443,453.871338 C673.765105,429.969331 642.359846,423.30264 614.644276,432.591942" id="Fill-53" fill="#DBD2BE"></path>
            <path d="M635.604351,533.585703 C621.792004,521.099283 604.300735,505.888164 582.78815,506.345856 C563.890877,499.351745 550.858024,509.871518 541.467668,524.953911 C531.866047,532.820499 526.584427,544.384382 530.962708,556.591895 C539.2676,579.762571 558.361567,594.651875 584.485553,601.424292 C604.694125,606.666299 637.49845,608.775975 650.320038,586.720925 C662.245572,566.203435 651.208807,547.681197 635.604351,533.585703" id="Fill-55" fill="#DBD2BE"></path>
            <path d="M349.427496,518.442634 C348.413853,515.018431 346.231614,512.045987 343.171315,509.963967 C339.659074,507.587322 335.488287,506.245139 331.078616,505.760644 C327.83754,504.555953 324.241366,503.927418 320.264269,504.195855 C311.677355,504.758917 302.231749,508.687257 297.395961,516.079083 C287.052925,531.897197 288.221521,551.728765 297.73169,566.178508 C306.744721,579.84913 330.407158,586.560044 343.261704,569.707467 C354.082507,555.513066 355.102607,535.897556 350.466964,520.655598 C350.202255,519.797911 349.827788,519.110451 349.427496,518.442634" id="Fill-57" fill="#DBD2BE"></path>
            <path d="M620.715851,203.826264 C591.349382,196.365438 559.236409,210.981318 541.517935,234.124825 C533.264338,244.901573 526.461458,257.737182 530.707976,270.131122 C534.186882,280.350686 545.158814,289.720885 558.074427,290.013066 C582.490145,290.54307 607.624181,275.132185 622.293331,256.908202 C632.180746,248.672755 642.039992,238.820117 642.723097,226.942592 C643.427329,214.494293 633.032867,206.958723 620.715851,203.826264" id="Fill-59" fill="#DBD2BE"></path>
            <path d="M261.342323,576.009542 C253.444193,569.681682 243.067183,563.718254 231.912227,569.370258 C231.721036,569.463023 231.582588,569.60217 231.404584,569.708186 C231.173837,569.787698 230.949683,569.820829 230.712344,569.926845 C224.066838,572.696526 219.531017,577.884708 216.504938,583.748746 C211.817483,587.618348 208.125535,592.859539 205.890589,598.849471 C196.139891,625.055423 204.044615,658.112692 234.325178,666.421735 C270.420559,676.321026 278.022015,632.847636 277.488001,609.875186 C277.151771,595.708732 272.622542,585.040822 261.342323,576.009542" id="Fill-61" fill="#DBD2BE"></path>
            <path d="M130.788846,138.959945 C115.454224,139.818919 96.692279,145.57031 90.8905626,161.846 C86.268976,174.805304 88.7564354,186.196046 97.1657443,196.145206 C112.669966,214.430149 142.590145,234.343407 169.733133,224.401717 C170.842596,223.998372 171.82486,223.482988 172.750591,222.915318 C186.777883,220.40562 198.572116,211.942859 201.53304,194.277871 C206.910758,162.129835 158.490099,137.413792 130.788846,138.959945" id="Fill-73" fill="#DBD2BE"></path>
            <path d="M204.788044,64.6827487 C190.174362,61.7968281 165.321702,62.3880899 156.760297,77.7327413 C147.95304,93.5560332 150.78756,110.505538 161.952095,123.492181 C172.834624,136.155038 188.894489,153.878814 207.60087,158.953811 C207.774412,159.101627 207.882876,159.277598 208.07088,159.432452 C215.930886,165.204293 224.759835,165.232449 234.586651,161.537062 C236.560691,160.790946 238.419036,159.86886 240.233996,158.855268 C251.087602,155.554056 260.053938,147.832459 263.626011,137.281251 C268.398416,123.154317 259.005456,108.210879 251.000831,97.5822445 C240.465386,83.574971 224.398289,68.5470669 204.788044,64.6827487" id="Fill-75" fill="#DBD2BE"></path>
            <path d="M245.749955,50.6879246 C232.821597,64.9762947 243.547509,86.3127703 251.571754,98.3913156 C259.860293,110.861041 270.175082,129.891613 286.216231,136.109318 C288.793093,137.118151 291.362614,137.344624 293.785304,137.035798 C299.68786,139.691705 306.816444,139.513272 313.071391,136.390693 C314.422224,135.711275 315.596862,134.839698 316.639353,133.885768 C325.434455,131.243586 333.421992,125.307256 337.011979,118.204247 C343.589952,105.137458 340.088063,90.5539868 332.680502,79.2783903 C318.606872,57.8595609 275.629807,17.6503583 245.749955,50.6879246" id="Fill-77" fill="#DBD2BE"></path>
            <path d="M414.654389,38.9845282 C401.420017,20.9737093 384.445496,6.57368557 360.558893,1.04240772 C343.864883,-2.83452175 328.767629,10.1700951 328.005214,25.4116787 C326.185488,61.534016 346.252824,122.334915 391.774749,126.240616 C394.097956,126.434822 396.111883,126.111145 397.845298,125.463792 C407.490566,126.6578 417.272493,123.205247 424.011953,111.667965 C426.169731,107.992434 426.802679,104.014805 425.378546,100.562252 C432.714991,79.6383415 427.090383,55.9380027 414.654389,38.9845282" id="Fill-79" fill="#DBD2BE"></path>
            <path d="M475.738114,0.359587233 C447.404624,0.999714063 443.640128,41.3561544 442.01727,60.5243967 C440.141673,82.7225726 439.569683,118.150036 466.127341,124.359267 C466.200502,124.373492 466.280315,124.359267 466.366779,124.373492 C469.951697,126.123172 474.215022,126.386335 478.451744,125.760433 C480.393851,126.151622 482.495584,126.34366 484.750292,126.28676 C511.600596,125.675083 529.365561,95.2832835 529.405467,71.9186542 C529.452025,44.8412893 507.536802,-0.38011488 475.738114,0.359587233" id="Fill-81" fill="#DBD2BE"></path>
            <path d="M686.0984,594.291227 C683.332097,593.349421 680.811246,593.468074 678.635353,594.291227 C677.753055,593.957517 676.844221,593.534816 675.988459,593.275263 C659.801938,588.380839 639.980083,602.648828 633.459038,618.207165 C626.135301,635.715855 631.754146,652.994657 643.03164,665.757239 C666.70111,692.580168 723.984147,712.135618 741.351488,662.116084 C753.570985,626.950386 711.12117,602.76748 686.0984,594.291227" id="Fill-97" fill="#DBD2BE"></path>
            <path d="M598.751965,643.892423 C598.155473,643.788469 597.587385,643.80332 597.005095,643.773619 C589.889792,641.991552 582.554356,642.206885 575.325436,645.689341 C535.843318,664.735182 561.066426,709.866029 582.639569,727.062975 C596.877275,738.408802 614.708138,747.148356 635.010183,741.839281 C648.99225,738.200894 667.284684,728.236169 667.916682,712.316371 C669.180678,679.942154 629.457123,648.822809 598.751965,643.892423" id="Fill-99" fill="#DBD2BE"></path>
            <path d="M554.392037,702.268137 C549.377033,698.048474 543.300904,694.847588 537.664094,691.240568 C534.859207,688.445816 531.750175,686.029663 528.140994,684.198619 C526.782483,683.283096 525.363142,682.732406 523.889731,682.450178 C520.94291,681.445168 517.752773,680.687969 514.035452,680.488344 C497.679241,679.68296 485.006557,695.522184 480.633637,708.463401 C475.834914,722.664321 482.607196,737.009798 490.143219,748.113087 C504.323107,769.046194 545.004113,798.212118 571.005081,768.667595 C583.299274,754.742019 581.758276,734.524809 572.086483,721.253178 C566.895752,714.114858 561.258942,708.036616 554.392037,702.268137" id="Fill-101" fill="#DBD2BE"></path>
            <path d="M468.508713,747.397881 C466.457248,745.368532 463.983618,742.970868 461.239537,740.443209 C454.597015,732.491918 446.529681,725.732237 436.54281,722.713491 C426.377838,717.802611 415.599405,716.054916 406.014911,722.049078 C389.207417,732.571359 388.376277,751.702122 393.963384,768.897422 C394.708771,778.047545 397.630953,787.219335 400.559732,793.899575 C414.339503,825.415865 449.979571,848.655879 480.92304,815.283566 C503.568302,790.873607 485.837319,764.607624 468.508713,747.397881" id="Fill-103" fill="#DBD2BE"></path>
            <path d="M339.946038,720.29432 C339.141194,719.951144 338.40342,719.574324 337.531505,719.311896 C324.765775,715.523509 309.332135,722.279354 301.909679,732.056488 C283.972077,755.661573 286.200305,792.724516 310.531949,810.226461 C340.408079,831.779222 379.27164,810.778234 378.250679,778.05545 C377.624689,758.171463 369.896691,721.303659 339.946038,720.29432" id="Fill-105" fill="#DBD2BE"></path>
        </g>
    </g>
</svg>